<svg width="92" height="88" viewBox="0 0 92 88" fill="none" xmlns="http://www.w3.org/2000/svg">
<rect width="80" height="80" fill="black"/>
<rect x="12" y="8" width="80" height="80" fill="#4C56C0"/>
<path d="M65.8348 35.0014C65.0349 35.028 64.277 35.3656 63.7222 35.9424C57.836 41.8414 53.3408 46.7682 47.8777 52.3439L42.0584 47.4273C41.7497 47.1662 41.3924 46.9686 41.0071 46.8458C40.6218 46.7231 40.2161 46.6775 39.8132 46.7118C39.4103 46.7461 39.0181 46.8595 38.6591 47.0456C38.3001 47.2317 37.9814 47.4868 37.7211 47.7963C37.4609 48.1058 37.2643 48.4636 37.1426 48.8492C37.0208 49.2349 36.9764 49.6407 37.0118 50.0435C37.0472 50.4463 37.1617 50.8382 37.3488 51.1967C37.5359 51.5552 37.7919 51.8732 38.1021 52.1326L46.0916 58.8929C46.6794 59.3881 47.4314 59.645 48.1994 59.613C48.9673 59.581 49.6953 59.2624 50.24 58.7201C56.8589 52.0869 61.5706 46.7889 68.0626 40.2829C68.5085 39.8519 68.8136 39.2962 68.9377 38.6886C69.0619 38.081 68.9994 37.4501 68.7584 36.8787C68.5174 36.3074 68.1092 35.8223 67.5874 35.4872C67.0656 35.1521 66.4546 34.9828 65.8348 35.0014Z" fill="white"/>
</svg>
