<svg width="92" height="88" viewBox="0 0 92 88" fill="none" xmlns="http://www.w3.org/2000/svg">
<rect width="80" height="80" fill="black"/>
<rect x="12" y="8" width="80" height="80" fill="#4C56C0"/>
<path d="M61.8 40.6L65.88 35.16C66.0578 34.9222 66.1661 34.6396 66.1925 34.3438C66.219 34.048 66.1627 33.7507 66.0299 33.4851C65.897 33.2195 65.693 32.996 65.4405 32.8397C65.188 32.6834 64.897 32.6004 64.6 32.6H45.4C45.4 32.1757 45.2314 31.7687 44.9314 31.4686C44.6313 31.1686 44.2243 31 43.8 31C43.3757 31 42.9687 31.1686 42.6686 31.4686C42.3686 31.7687 42.2 32.1757 42.2 32.6V59.8H40.6C40.1757 59.8 39.7687 59.9686 39.4686 60.2686C39.1686 60.5687 39 60.9757 39 61.4C39 61.8243 39.1686 62.2313 39.4686 62.5314C39.7687 62.8314 40.1757 63 40.6 63H47C47.4243 63 47.8313 62.8314 48.1314 62.5314C48.4314 62.2313 48.6 61.8243 48.6 61.4C48.6 60.9757 48.4314 60.5687 48.1314 60.2686C47.8313 59.9686 47.4243 59.8 47 59.8H45.4V48.6H64.6C64.897 48.5996 65.188 48.5166 65.4405 48.3603C65.693 48.204 65.897 47.9805 66.0299 47.7149C66.1627 47.4493 66.219 47.152 66.1925 46.8562C66.1661 46.5604 66.0578 46.2778 65.88 46.04L61.8 40.6Z" fill="white"/>
</svg>
