<svg width="92" height="88" viewBox="0 0 92 88" fill="none" xmlns="http://www.w3.org/2000/svg">
<rect width="80" height="80" fill="black"/>
<rect x="12" y="8" width="80" height="80" fill="#4C56C0"/>
<path d="M52 31C43.1747 31 36 38.1747 36 47C36 55.8253 43.1747 63 52 63C60.8253 63 68 55.8253 68 47C68 38.1747 60.8253 31 52 31ZM57.8274 40.7347C59.0737 40.7347 60.0842 41.7453 60.0842 42.9916C60.0842 44.2379 59.0737 45.2484 57.8274 45.2484C56.581 45.2484 55.5705 44.2379 55.5705 42.9916C55.5705 41.7453 56.581 40.7347 57.8274 40.7347ZM46.1726 40.7347C47.419 40.7347 48.4295 41.7453 48.4295 42.9916C48.4295 44.2379 47.419 45.2484 46.1726 45.2484C44.9263 45.2484 43.9158 44.2379 43.9158 42.9916C43.9158 41.7453 44.9263 40.7347 46.1726 40.7347ZM60.219 52.3221C60.0842 52.4568 57.2547 55.9263 52 55.9263C46.7453 55.9263 43.8821 52.4568 43.781 52.3221C43.4105 51.8505 43.4779 51.1768 43.9495 50.7726C44.421 50.4021 45.0947 50.4695 45.499 50.9411C45.6 51.0421 47.8568 53.7368 52.0337 53.7368C56.2442 53.7368 58.5347 50.9747 58.5684 50.9411C58.9389 50.4695 59.6463 50.4021 60.1179 50.7726C60.5221 51.1432 60.5895 51.8505 60.219 52.3221Z" fill="white"/>
</svg>
