<svg width="178" height="30" viewBox="0 0 178 30" fill="none" xmlns="http://www.w3.org/2000/svg">
<rect x="5.5" y="5.5" width="18.9999" height="12.9999" fill="black" stroke="black" stroke-width="11"/>
<rect x="8.99854" y="6" width="29.9999" height="23.9999" fill="#4C56C0"/>
<path d="M47.3693 4.98751V26.25H56.664C62.739 26.25 67.6598 22.0886 67.6598 15.7099C67.6598 9.33113 62.739 4.98751 56.664 4.98751H47.3693ZM52.4723 21.4811V9.75638H56.664C59.7015 9.75638 62.3441 12.0649 62.3441 15.7099C62.3441 19.3549 59.7015 21.4811 56.664 21.4811H52.4723Z" fill="black"/>
<path d="M83.7077 26.25H89.2056L80.7006 4.98751H75.871L67.366 26.25H72.8638L74.0788 22.9087H82.4927L83.7077 26.25ZM75.7191 18.4436L77.2378 14.3126C77.6935 13.0976 78.2402 11.184 78.2706 11.184H78.301C78.3313 11.184 78.8781 13.0976 79.3337 14.3126L80.8525 18.4436H75.7191Z" fill="black"/>
<path d="M104.946 4.98751V9.8475C104.946 13.7051 105.007 17.4716 104.977 17.4716H104.946C104.916 17.4716 101.666 12.885 100.299 11.0625L95.7732 4.98751H90.974V26.25H96.077V21.5419C96.077 16.8945 96.0162 13.614 96.0466 13.614H96.077C96.1073 13.614 98.9626 17.6539 100.907 20.3269L105.25 26.25H110.049V4.98751H104.946Z" fill="black"/>
<path d="M134.142 26.25L125.06 14.0393L134.082 4.98751H127.824L122.661 10.1209C120.504 12.2775 119.896 13.0065 119.866 13.0065H119.836C119.805 13.0065 119.896 11.9738 119.896 8.45025V4.98751H114.793V26.25H119.896V19.203L121.689 17.4109L128.128 26.25H134.142Z" fill="black"/>
<path d="M151.636 26.25H157.134L148.629 4.98751H143.799L135.294 26.25H140.792L142.007 22.9087H150.421L151.636 26.25ZM143.648 18.4436L145.166 14.3126C145.622 13.0976 146.169 11.184 146.199 11.184H146.229C146.26 11.184 146.807 13.0976 147.262 14.3126L148.781 18.4436H143.648Z" fill="black"/>
<path d="M177.51 10.212C175.627 6.81 172.043 4.56226 167.851 4.56226C161.746 4.56226 156.825 9.20963 156.825 15.6188C156.825 22.0279 161.746 26.6752 167.851 26.6752C172.316 26.6752 176.113 24.1845 177.875 20.418L172.711 19.0815C171.83 20.5395 169.886 21.5722 167.851 21.5722C164.54 21.5722 162.141 19.2941 162.141 15.6188C162.141 12.1256 164.328 9.6045 167.851 9.6045C169.522 9.6045 171.344 10.3639 172.316 11.5789L177.51 10.212Z" fill="black"/>
</svg>
