<svg width="92" height="88" viewBox="0 0 92 88" fill="none" xmlns="http://www.w3.org/2000/svg">
<rect width="80" height="80" fill="black"/>
<rect x="12" y="8" width="80" height="80" fill="#4C56C0"/>
<path d="M38.4 37C38.0856 37 37.7872 37.066 37.5125 37.175L51.0875 49.0375C51.6743 49.5502 52.2993 49.5505 52.8875 49.0375L66.4875 37.175C66.2128 37.066 65.9144 37 65.6 37H38.4ZM36.025 39.0625C36.0099 39.1718 36 39.2864 36 39.4V55.4C36 56.7296 37.0704 57.8 38.4 57.8H65.6C66.9296 57.8 68 56.7296 68 55.4V39.4C68 39.2864 67.9901 39.1718 67.975 39.0625L54.4625 50.85C53.0527 52.0796 50.9222 52.0816 49.5125 50.85L36.025 39.0625Z" fill="white"/>
</svg>
