<svg width="92" height="88" viewBox="0 0 92 88" fill="none" xmlns="http://www.w3.org/2000/svg">
<rect width="80" height="80" fill="black"/>
<rect x="12" y="8" width="80" height="80" fill="#4C56C0"/>
<path fill-rule="evenodd" clip-rule="evenodd" d="M45.8741 43.1519C46.3734 41.7376 48.3709 41.7376 49.6692 40.7274C50.0687 40.4243 50.4682 40.0202 50.4682 39.4141C50.2684 37.3937 49.5693 34.06 48.8702 32.7467C48.6705 32.3426 48.3709 32.0396 47.7716 32.0396C45.974 31.7365 42.7781 33.2518 42.2787 33.959C34.3888 43.657 48.5706 66.5888 60.6551 63.7602C61.4541 63.5581 64.2505 61.2346 64.8497 59.5173C64.9496 59.0122 64.8497 58.5071 64.65 58.204C63.7511 56.9918 61.0546 54.8703 59.3568 53.8601C58.8574 53.557 58.358 53.7591 57.8587 53.9611C56.3606 54.7693 55.5616 56.5877 54.0636 56.3856C51.2672 55.9815 44.9752 45.8794 45.8741 43.1519Z" fill="white"/>
</svg>
